<?xml version="1.0" encoding="UTF-8"?>
<svg width="16px" height="48px" viewBox="0 0 16 48" version="1.1" xmlns="http://www.w3.org/2000/svg" xmlns:xlink="http://www.w3.org/1999/xlink">
    <!-- Generator: Sketch 60.1 (88133) - https://sketch.com -->
    <title>收起</title>
    <desc>Created with Sketch.</desc>
    <g id="页面-1" stroke="none" stroke-width="1" fill="none" fill-rule="evenodd">
        <g id="播种打印-无输入" transform="translate(-500.000000, -452.000000)">
            <g id="收起" transform="translate(500.000000, 452.000000)">
                <rect id="矩形" stroke="#DCE1E6" fill="#E9F1F8" x="0.5" y="0.5" width="15" height="47" rx="4"></rect>
                <g id="enter" transform="translate(0.000000, 16.000000)" fill-rule="nonzero">
                    <rect id="矩形" fill="#000000" opacity="0" x="0" y="0" width="16" height="16"></rect>
                    <path d="M10.130375,7.83875 L6.380375,4.3505 C6.22811974,4.21453243 5.99507721,4.22532166 5.85603617,4.37477546 C5.71699514,4.52422926 5.7230347,4.75744321 5.869625,4.8995 L9.330875,8.11925 L5.864,11.48075 C5.71540088,11.6248963 5.71179118,11.8622134 5.8559375,12.0108125 C6.00008382,12.1594116 6.23740088,12.1630213 6.386,12.018875 L10.136,8.382875 C10.2098972,8.3113631 10.2511493,8.21261879 10.2501056,8.10979071 C10.2490218,8.00696263 10.2057358,7.90909285 10.130375,7.839125" id="路径" stroke="#172D4D" fill="#172D4D" transform="translate(8.000126, 8.189934) scale(-1, 1) translate(-8.000126, -8.189934) "></path>
                </g>
            </g>
        </g>
    </g>
</svg>